<svg width="1371" height="1371" viewBox="0 0 1371 1371" fill="none" xmlns="http://www.w3.org/2000/svg">
<circle cx="685.5" cy="685.5" r="675.5" fill="#C2A5CB" stroke="#C3C6AF" stroke-width="20"/>
<path d="M528.965 807.389C528.965 812.33 527.461 815.553 524.453 817.057C521.66 818.561 518.223 819.312 514.141 819.312C510.488 819.312 506.836 818.99 503.184 818.346C499.746 817.916 496.416 816.949 493.193 815.445C490.186 813.941 487.5 811.9 485.137 809.322C482.988 806.744 481.484 803.414 480.625 799.332C477.617 786.441 475.898 773.873 475.469 761.627C475.039 749.166 474.824 736.383 474.824 723.277V683.639C474.824 665.592 475.576 646.9 477.08 627.564C478.584 608.014 480.195 589.215 481.914 571.168C481.914 570.523 482.021 569.771 482.236 568.912C482.451 568.053 482.559 567.408 482.559 566.979C482.773 564.615 483.096 562.037 483.525 559.244C483.955 556.451 484.6 553.98 485.459 551.832C486.533 549.469 487.93 547.535 489.648 546.031C491.582 544.527 494.053 543.775 497.061 543.775C500.498 543.775 503.721 544.527 506.729 546.031C509.951 547.32 512.744 549.146 515.107 551.51C517.471 553.658 519.297 556.344 520.586 559.566C522.09 562.789 522.842 566.119 522.842 569.557C522.842 573.854 522.627 578.365 522.197 583.092C521.982 587.604 521.66 592.008 521.23 596.305C520.801 599.312 520.479 601.568 520.264 603.072C520.264 604.576 520.156 607.047 519.941 610.484C522.52 605.973 525.42 601.461 528.643 596.949C532.08 592.223 535.84 588.141 539.922 584.703C544.004 581.051 548.408 578.15 553.135 576.002C558.076 573.639 563.34 572.457 568.926 572.457C574.512 572.457 579.131 573.424 582.783 575.357C586.436 577.076 589.336 579.547 591.484 582.77C593.633 585.777 595.137 589.43 595.996 593.727C596.855 598.023 597.285 602.535 597.285 607.262C597.285 610.27 597.178 613.17 596.963 615.963C596.963 618.756 596.855 621.549 596.641 624.342C596.426 627.135 596.211 629.928 595.996 632.721C595.996 635.299 595.996 638.092 595.996 641.1C595.996 646.686 596.104 652.057 596.318 657.213C596.748 662.154 597.178 667.418 597.607 673.004C599.756 665.914 602.334 657.857 605.342 648.834C608.564 639.811 612.217 630.572 616.299 621.119C620.596 611.666 625.215 602.428 630.156 593.404C635.312 584.166 640.791 576.002 646.592 568.912C652.607 561.822 659.053 556.129 665.928 551.832C672.803 547.32 680 545.064 687.52 545.064C699.336 545.064 707.607 548.502 712.334 555.377C717.275 562.252 719.746 571.061 719.746 581.803C719.746 584.811 719.639 588.033 719.424 591.471C719.209 594.693 718.887 597.809 718.457 600.816C717.383 612.418 716.523 624.342 715.879 636.588C715.449 648.834 715.234 660.758 715.234 672.359V678.482C715.234 693.521 715.879 707.701 717.168 721.021C718.457 734.342 721.035 748.414 724.902 763.238L727.48 771.939C728.34 774.947 729.307 778.277 730.381 781.93C731.67 785.582 732.744 789.127 733.604 792.564C734.463 796.002 735.215 799.225 735.859 802.232C736.504 805.24 736.826 807.604 736.826 809.322C736.826 813.834 735.215 816.842 731.992 818.346C728.77 819.85 725.439 820.602 722.002 820.602C719.854 820.602 717.383 820.494 714.59 820.279C711.797 820.279 709.004 819.957 706.211 819.312C703.633 818.883 701.055 818.131 698.477 817.057C696.113 815.982 694.18 814.586 692.676 812.867V813.189C690.742 811.256 689.346 808.893 688.486 806.1C687.627 803.307 686.982 800.514 686.553 797.721L685.908 794.82C682.9 783.219 680.322 772.799 678.174 763.561C676.24 754.322 674.629 745.084 673.34 735.846C672.051 726.607 671.084 717.047 670.439 707.164C670.01 697.281 669.795 685.895 669.795 673.004C669.795 662.047 670.225 650.875 671.084 639.488C672.158 628.102 673.232 616.93 674.307 605.973C674.307 604.898 674.307 603.717 674.307 602.428C674.521 600.924 674.736 599.635 674.951 598.561C666.787 611.236 659.59 625.201 653.359 640.455C647.344 655.494 641.865 670.963 636.924 686.861C632.197 702.76 628.008 718.766 624.355 734.879C620.918 750.777 617.803 765.924 615.01 780.318C615.01 780.533 615.439 781.822 616.299 784.186C617.373 786.334 618.34 788.912 619.199 791.92C620.273 794.713 621.24 797.506 622.1 800.299C622.959 802.877 623.389 804.596 623.389 805.455C623.389 810.396 621.777 813.404 618.555 814.479C615.332 815.553 612.002 816.09 608.564 816.09C605.986 816.09 603.193 815.982 600.186 815.768C597.178 815.553 594.17 815.016 591.162 814.156C588.369 813.297 585.684 812.115 583.105 810.611C580.742 809.322 578.809 807.389 577.305 804.811C576.016 802.662 574.512 797.613 572.793 789.664C571.074 781.5 569.248 772.047 567.314 761.305C565.381 750.348 563.555 738.639 561.836 726.178C560.117 713.717 558.506 701.9 557.002 690.729C555.498 679.557 554.316 669.781 553.457 661.402C552.598 653.023 552.168 647.33 552.168 644.322V639.488C545.293 654.312 539.6 670.211 535.088 687.184C530.576 704.156 527.139 720.807 524.775 737.135L523.486 742.936C523.057 744.654 522.734 746.373 522.52 748.092C522.305 749.596 522.197 751.1 522.197 752.604C522.197 754.967 522.412 757.867 522.842 761.305C523.486 764.742 524.238 768.502 525.098 772.584C526.172 778.17 527.031 783.971 527.676 789.986C528.535 795.787 528.965 801.588 528.965 807.389ZM882.168 750.025C882.168 756.471 880.342 763.131 876.689 770.006C873.252 776.881 868.74 783.219 863.154 789.02C857.568 794.605 851.123 799.225 843.818 802.877C836.729 806.529 829.639 808.355 822.549 808.355C812.451 808.355 803.75 806.422 796.445 802.555C789.141 798.473 782.803 793.102 777.432 786.441C772.061 779.566 767.656 771.832 764.219 763.238C760.996 754.645 758.418 745.836 756.484 736.812C754.551 727.574 753.154 718.443 752.295 709.42C751.65 700.182 751.328 691.803 751.328 684.283C751.328 677.838 751.65 670.211 752.295 661.402C753.154 652.594 754.443 643.463 756.162 634.01C758.096 624.557 760.674 615.211 763.896 605.973C767.119 596.734 771.094 588.463 775.82 581.158C780.762 573.854 786.562 567.945 793.223 563.434C800.098 558.922 807.939 556.666 816.748 556.666C823.623 556.666 829.746 558.062 835.117 560.855C840.703 563.648 845.322 567.408 848.975 572.135C852.842 576.646 855.742 581.91 857.676 587.926C859.824 593.941 860.898 600.172 860.898 606.617C860.898 614.996 858.965 624.127 855.098 634.01C851.23 643.893 846.182 653.453 839.951 662.691C833.936 671.93 827.061 680.309 819.326 687.828C811.807 695.133 804.287 700.719 796.768 704.586C797.197 708.453 798.057 714.146 799.346 721.666C800.635 728.971 802.354 736.275 804.502 743.58C806.865 750.885 809.551 757.223 812.559 762.594C815.781 767.965 819.541 770.65 823.838 770.65C825.986 770.65 827.812 770.006 829.316 768.717C831.035 767.428 832.539 765.709 833.828 763.561C835.117 761.412 836.191 759.049 837.051 756.471C838.125 753.893 839.092 751.422 839.951 749.059L841.885 744.547C842.314 743.902 842.529 743.473 842.529 743.258C842.744 743.043 842.959 742.721 843.174 742.291C844.678 739.498 846.074 736.92 847.363 734.557C848.867 732.193 850.908 730.152 853.486 728.434H853.164C854.023 727.574 854.883 727.145 855.742 727.145C856.816 726.93 857.783 726.822 858.643 726.822C861.006 726.822 863.584 727.574 866.377 729.078C869.17 730.582 871.748 732.516 874.111 734.879C876.475 737.027 878.408 739.498 879.912 742.291C881.416 744.869 882.168 747.447 882.168 750.025ZM818.359 607.906C818.359 605.758 818.252 603.502 818.037 601.139C817.822 598.775 817.285 596.734 816.426 595.016C813.418 598.668 810.732 603.072 808.369 608.229C806.221 613.17 804.395 618.434 802.891 624.02C801.387 629.391 800.098 634.869 799.023 640.455C798.164 646.041 797.52 651.197 797.09 655.924C802.676 649.264 807.617 641.744 811.914 633.365C816.211 624.771 818.359 616.285 818.359 607.906Z" fill="white"/>
</svg>
