<svg width="1371" height="1371" viewBox="0 0 1371 1371" fill="none" xmlns="http://www.w3.org/2000/svg">
<circle cx="685.5" cy="685.5" r="675.5" fill="#C3C6AF" stroke="#C2A5CB" stroke-width="20"/>
<path d="M574.32 810.922C574.32 818.93 574.027 827.328 573.441 836.117C572.855 844.906 571.879 853.695 570.512 862.484C569.145 871.469 567.289 880.258 564.945 888.852C562.602 897.445 559.672 905.453 556.156 912.875C550.297 923.812 542.875 933.383 533.891 941.586C525.102 949.984 515.434 957.016 504.887 962.68C494.34 968.344 483.109 972.641 471.195 975.57C459.281 978.5 447.27 979.965 435.16 979.965C433.402 979.965 431.352 979.867 429.008 979.672C426.469 979.477 424.027 978.988 421.684 978.207C419.34 977.621 417.387 976.547 415.824 974.984C414.262 973.422 413.48 971.273 413.48 968.539C413.48 967.367 413.773 966.195 414.359 965.023C414.359 964.633 414.457 964.242 414.652 963.852C414.652 963.656 414.652 963.461 414.652 963.266C416.02 959.359 417.582 956.234 419.34 953.891C421.098 951.547 423.148 949.691 425.492 948.324C427.641 947.152 430.277 946.273 433.402 945.688C436.332 945.297 439.75 944.906 443.656 944.516C456.156 943.93 467.973 941 479.105 935.727V936.02C491.801 929.77 501.762 921.957 508.988 912.582C516.41 903.402 521.977 893.148 525.688 881.82C529.594 870.688 532.035 858.871 533.012 846.371C533.988 833.871 534.477 821.273 534.477 808.578C534.477 805.648 534.477 803.5 534.477 802.133C534.477 800.766 534.477 799.496 534.477 798.324C534.477 797.348 534.477 796.176 534.477 794.809C534.477 793.441 534.379 791.293 534.184 788.363C527.348 793.637 520.219 796.273 512.797 796.273C504.203 796.273 496.879 793.93 490.824 789.242C484.965 784.359 479.984 778.109 475.883 770.492C471.977 762.68 468.852 753.891 466.508 744.125C464.359 734.164 462.699 724.105 461.527 713.949C460.551 703.598 459.867 693.539 459.477 683.773C459.281 674.008 459.184 665.316 459.184 657.699V645.395C459.184 635.043 459.184 624.887 459.184 614.926C459.379 604.965 459.77 595.004 460.355 585.043V580.648C460.355 578.305 460.355 575.961 460.355 573.617C460.355 571.273 460.551 569.027 460.941 566.879C461.723 563.754 462.797 561.508 464.164 560.141C465.727 558.773 468.168 558.09 471.488 558.09C473.051 558.09 474.516 558.188 475.883 558.383C477.445 558.578 479.008 558.871 480.57 559.262C484.281 560.824 487.211 562.484 489.359 564.242C491.508 565.805 493.07 567.758 494.047 570.102C495.219 572.25 495.902 574.789 496.098 577.719C496.488 580.648 496.684 584.066 496.684 587.973V627.23C496.684 631.918 496.684 637.777 496.684 644.809C496.879 651.645 497.172 659.164 497.562 667.367C497.953 675.57 498.441 684.066 499.027 692.855C499.613 701.645 500.492 710.141 501.664 718.344C502.836 726.547 504.203 734.066 505.766 740.902C507.328 747.738 509.281 753.402 511.625 757.895C515.141 750.277 518.168 741.391 520.707 731.234C523.246 720.883 525.297 709.848 526.859 698.129C528.617 686.215 529.887 674.008 530.668 661.508C531.645 649.008 532.328 636.801 532.719 624.887C533.305 612.973 533.598 601.742 533.598 591.195C533.793 580.453 533.891 571.078 533.891 563.07C533.891 561.117 533.891 559.066 533.891 556.918C534.086 554.574 534.574 552.523 535.355 550.766C536.137 548.812 537.211 547.25 538.578 546.078C540.141 544.906 542.387 544.32 545.316 544.32C546.684 544.32 548.148 544.516 549.711 544.906C551.469 545.297 552.934 545.688 554.105 546.078C554.496 546.078 554.887 546.176 555.277 546.371C555.863 546.371 556.352 546.371 556.742 546.371C559.477 547.348 562.113 548.324 564.652 549.301C567.191 550.277 569.34 551.547 571.098 553.109C573.051 554.477 574.516 556.332 575.492 558.676C576.664 561.02 577.25 564.047 577.25 567.758C577.25 572.25 577.152 577.426 576.957 583.285C576.957 588.949 576.762 594.906 576.371 601.156C576.176 607.406 575.883 613.559 575.492 619.613C575.102 625.473 574.711 630.746 574.32 635.434L573.148 645.688C572.758 648.422 572.465 651.156 572.27 653.891C572.074 656.625 571.977 659.164 571.977 661.508C571.977 674.008 572.074 686.508 572.27 699.008C572.465 711.312 572.758 723.715 573.148 736.215C573.539 748.715 573.832 761.215 574.027 773.715C574.223 786.02 574.32 798.422 574.32 810.922ZM732.523 670.883C732.523 687.875 731.059 704.867 728.129 721.859C725.395 738.656 719.633 754.574 710.844 769.613C708.109 774.105 704.984 778.5 701.469 782.797C697.953 786.898 694.047 790.609 689.75 793.93C685.648 797.445 681.059 800.18 675.98 802.133C671.098 804.281 665.922 805.355 660.453 805.355C651.859 805.355 644.34 803.305 637.895 799.203C631.645 795.297 626.176 790.121 621.488 783.676C616.996 777.035 613.188 769.613 610.062 761.41C607.133 753.012 604.789 744.516 603.031 735.922C601.469 727.133 600.297 718.637 599.516 710.434C598.93 702.23 598.637 695.004 598.637 688.754C598.637 681.723 598.93 674.008 599.516 665.609C600.102 657.211 601.078 648.617 602.445 639.828C604.008 631.039 605.961 622.348 608.305 613.754C610.844 605.16 614.066 597.152 617.973 589.73C621.879 582.113 626.566 575.375 632.035 569.516C637.504 563.461 643.852 558.676 651.078 555.16V555.453C657.328 552.133 663.578 550.473 669.828 550.473C673.734 550.473 676.762 551.352 678.91 553.109C681.059 554.672 682.035 557.406 681.84 561.312C692.582 563.266 701.273 568.441 707.914 576.84C714.555 585.238 719.633 595.004 723.148 606.137C726.859 617.27 729.301 628.695 730.473 640.414C731.84 652.133 732.523 662.289 732.523 670.883ZM666.312 597.641C662.992 597.641 659.867 596.371 656.938 593.832C653.227 599.496 650.102 606.039 647.562 613.461C645.023 620.688 642.973 628.207 641.41 636.02C640.043 643.637 639.066 651.352 638.48 659.164C637.895 666.977 637.602 674.301 637.602 681.137C637.602 686.801 637.895 694.125 638.48 703.109C639.066 711.898 640.141 720.785 641.703 729.77C643.461 738.754 645.805 747.152 648.734 754.965C651.859 762.777 655.863 768.539 660.746 772.25C666.801 768.734 671.781 763.168 675.688 755.551C679.789 747.738 683.012 739.242 685.355 730.062C687.699 720.883 689.262 711.605 690.043 702.23C691.02 692.855 691.508 684.848 691.508 678.207C691.508 673.324 691.215 666.977 690.629 659.164C690.043 651.352 689.066 643.441 687.699 635.434C686.332 627.23 684.379 619.613 681.84 612.582C679.496 605.551 676.469 600.277 672.758 596.762C671 597.348 668.852 597.641 666.312 597.641ZM877.25 597.641C877.25 599.594 877.055 601.645 876.664 603.793C876.273 605.941 875.883 607.895 875.492 609.652C875.102 611.801 874.711 613.852 874.32 615.805C873.93 617.562 873.734 619.32 873.734 621.078C873.734 639.242 874.027 657.504 874.613 675.863C875.395 694.027 877.348 712.289 880.473 730.648C881.449 737.68 882.621 744.516 883.988 751.156C885.355 757.797 886.918 764.535 888.676 771.371L889.262 773.129V772.543C889.848 773.91 890.336 775.375 890.727 776.938C891.312 778.305 891.605 779.77 891.605 781.332C891.605 783.48 891.02 785.238 889.848 786.605C888.871 787.973 887.602 789.047 886.039 789.828C884.477 790.609 882.719 791.098 880.766 791.293C879.008 791.488 877.348 791.586 875.785 791.586C869.34 791.586 864.164 790.902 860.258 789.535C856.547 787.973 853.52 785.922 851.176 783.383C848.832 780.648 847.074 777.426 845.902 773.715C844.926 770.004 844.047 765.902 843.266 761.41L842.387 756.137C841.605 753.402 841.117 750.473 840.922 747.348C840.727 745.785 840.531 745.102 840.336 745.297C840.336 745.297 840.238 744.516 840.043 742.953C837.309 747.836 834.086 753.109 830.375 758.773C826.859 764.242 822.758 769.418 818.07 774.301C813.578 778.988 808.695 782.992 803.422 786.312C798.148 789.438 792.484 791 786.43 791C778.031 791 771.488 788.461 766.801 783.383C762.309 778.305 758.988 772.152 756.84 764.926C754.691 757.504 753.422 749.887 753.031 742.074C752.641 734.066 752.445 727.133 752.445 721.273C752.445 699.008 753.129 676.938 754.496 655.062C756.059 633.188 757.719 611.215 759.477 589.145C759.477 588.559 759.477 587.777 759.477 586.801C759.672 585.824 759.77 585.043 759.77 584.457C759.965 581.723 760.16 579.184 760.355 576.84C760.551 574.496 761.039 572.25 761.82 570.102V570.395C762.602 567.27 763.676 565.023 765.043 563.656C766.605 562.289 768.949 561.605 772.074 561.605C775.004 561.605 777.934 562.191 780.863 563.363C783.793 564.34 786.43 565.805 788.773 567.758C791.117 569.516 792.973 571.664 794.34 574.203C795.902 576.742 796.684 579.574 796.684 582.699C796.684 584.262 796.684 586.117 796.684 588.266C796.684 590.414 796.586 592.27 796.391 593.832C796.391 595.199 796.293 596.957 796.098 599.105C796.098 601.059 796.098 602.719 796.098 604.086C794.535 622.836 793.363 641.488 792.582 660.043C791.801 678.402 791.41 697.055 791.41 716C791.41 721.273 791.41 726.547 791.41 731.82C791.605 737.094 792.191 742.367 793.168 747.641C799.613 739.438 805.18 728.988 809.867 716.293C814.555 703.402 818.461 689.828 821.586 675.57C824.906 661.117 827.543 646.859 829.496 632.797C831.645 618.539 833.207 605.941 834.184 595.004C834.184 594.418 834.184 593.734 834.184 592.953C834.379 592.172 834.477 591.488 834.477 590.902C834.672 588.754 834.867 586.703 835.062 584.75C835.258 582.797 835.941 580.941 837.113 579.184C837.113 577.426 837.211 575.57 837.406 573.617C837.602 571.664 838.09 569.906 838.871 568.344C839.652 566.586 840.727 565.219 842.094 564.242C843.656 563.266 845.805 562.777 848.539 562.777C856.352 562.777 862.504 565.219 866.996 570.102C871.488 574.789 873.93 580.844 874.32 588.266C875.297 589.828 875.98 591.391 876.371 592.953C876.957 594.32 877.25 595.883 877.25 597.641Z" fill="white"/>
</svg>
